<svg width="100" height="100" viewBox="0 0 100 100" fill="none" xmlns="http://www.w3.org/2000/svg">
<path d="M9 46.3461V5H18.5486V46.3461H9ZM12.7133 5H22.5934L45.0723 46.3461H35.1922L12.7133 5ZM38.5077 46.3461V5H48.0562V46.3461H38.5077Z" fill="#E74C3C"/>
<path d="M59.3148 46.3461V5H69.9243V46.3461H59.3148ZM64.2217 46.3461V37.957H91.8064V46.3461H64.2217ZM64.2217 29.4481V21.5384H88.3583V29.4481H64.2217ZM64.2217 13.3891V5H91.4749V13.3891H64.2217Z" fill="#E74C3C"/>
<path d="M9 96.2809V54.9349H18.5486V96.2809H9ZM12.7133 54.9349H22.5934L45.0723 96.2809H35.1922L12.7133 54.9349ZM38.5077 96.2809V54.9349H48.0562V96.2809H38.5077Z" fill="#E74C3C"/>
<path d="M55.9994 91.8467L61.0389 83.8771C62.984 85.3152 65.2385 86.4937 67.8024 87.4125C70.3664 88.2914 72.864 88.7308 75.2954 88.7308C76.7542 88.7308 77.9699 88.571 78.9424 88.2514C79.9592 87.9318 80.7328 87.5124 81.2632 86.9931C81.7937 86.4737 82.0589 85.8945 82.0589 85.2553C82.0589 84.696 81.8158 84.1168 81.3296 83.5176C80.8875 82.9184 80.0476 82.2992 78.8098 81.66C77.6162 81.0208 75.848 80.3617 73.505 79.6826C69.8801 78.604 66.9404 77.3856 64.6859 76.0274C62.4756 74.6292 60.8621 73.1112 59.8453 71.4733C58.8286 69.8354 58.3202 68.1177 58.3202 66.32C58.3202 64.1229 58.9612 62.1055 60.2432 60.2679C61.5693 58.4303 63.5144 56.9722 66.0784 55.8936C68.6424 54.7751 71.8031 54.2158 75.5606 54.2158C78.5667 54.2158 81.5506 54.6552 84.5124 55.5341C87.5184 56.373 90.0382 57.4316 92.0717 58.7099L87.3637 66.32C85.5512 65.1615 83.562 64.2228 81.3959 63.5037C79.2298 62.7447 76.9973 62.3652 74.6986 62.3652C72.8419 62.3652 71.4273 62.6848 70.4548 63.3239C69.4823 63.9631 68.996 64.7021 68.996 65.541C68.996 66.1403 69.2391 66.7195 69.7254 67.2788C70.2559 67.838 71.1179 68.3973 72.3115 68.9566C73.5492 69.5158 75.207 70.1151 77.2847 70.7542C81.0422 71.8728 84.0703 73.1311 86.3691 74.5293C88.6678 75.8875 90.3476 77.4056 91.4086 79.0834C92.4695 80.7212 93 82.5588 93 84.5962C93 86.7933 92.3148 88.8307 90.9444 90.7082C89.574 92.5858 87.4963 94.1038 84.7113 95.2623C81.9263 96.4208 78.4119 97 74.1681 97C72.0904 97 70.0127 96.7803 67.9351 96.3409C65.8574 95.9414 63.8239 95.3621 61.8346 94.6031C59.8453 93.8441 57.9002 92.9253 55.9994 91.8467Z" fill="#E74C3C"/>
</svg>
